# xmcd CD database file generated by OrangeCD 4.2
#
# Track frame offsets:
#	150
#	16580
#	33977
#	55740
#	70050
#	83592
#	97850
#	116775
#	139470
#	152727
#	170095
#	190107
#
# Disc length: 2636 seconds
#
# Revision: 0
# Processed by: cddbd v1.4PL0 Copyright (c) Steve Scherf et al.
# Submitted via: OrangeCD 4.2
#
DISCID=930a4a0c
DTITLE=Oswaldo Montenegro - Léo e Bia
DYEAR=1998
DGENRE=Blues
TTITLE0=Pra Longe do Paranoá
TTITLE1=Coisas de Brasilia
TTITLE2=Por Descuido ou Displicência
TTITLE3=Janelas de Brasilia
TTITLE4=História Estranha
TTITLE5=Drops de Hortelã
TTITLE6=Blues da Bailarina
TTITLE7=Intuição
TTITLE8=Som Molhado
TTITLE9=Quem Havia de Dizer
TTITLE10=Léo e Bia
TTITLE11=Paranó(i)a de Brasilia
EXTD=
EXTT0=
EXTT1=
EXTT2=
EXTT3=
EXTT4=
EXTT5=
EXTT6=
EXTT7=
EXTT8=
EXTT9=
EXTT10=
EXTT11=
PLAYORDER=
